# xmcd
#
# Track frame offsets: 
#        150
#        11196
#        24868
#        34761
#        48803
#        66547
#        93565
#        111887
#        124155
#        142667
#        169090
#        187639
#
# Disc length: 2683 seconds
#
# Revision: 0
# Processed by: cddbd v1.5.2PL0 Copyright (c) Steve Scherf et al.
# Submitted via: ExactAudioCopy v0.95b4
#
DISCID=950a790c
DTITLE=Eirik Bergene - A Better Way
DYEAR=2008
DGENRE=Blues
TTITLE0=01 Fools fall in love in a harry
TTITLE1=02 You wouldn't know love
TTITLE2=03 Cherry pink
TTITLE3=04 If I thought you needed me
TTITLE4=05 Answering machine
TTITLE5=06 A better way
TTITLE6=07 Word about a woman
TTITLE7=08 Crazy 'bout you
TTITLE8=09 Tuff enuff
TTITLE9=10 Moskow city
TTITLE10=11 Get out of my life, woman - live
TTITLE11=12 A rainy day in Russia
EXTD=
EXTT0=
EXTT1=
EXTT2=
EXTT3=
EXTT4=
EXTT5=
EXTT6=
EXTT7=
EXTT8=
EXTT9=
EXTT10=
EXTT11=
PLAYORDER=
